Coordinates
version=1
nRows=14
nColumns=33
inDegrees=yes

Units are S.I. units (second, meters, Newtons, ...)
Angles are in degrees.

endheader
time	ground_thorax_rot_x	ground_thorax_rot_y	ground_thorax_rot_z	ground_thorax_tx	ground_thorax_ty	ground_thorax_tz	clav_prot_r	clav_elev_r	scapula_abduction_r	scapula_elevation_r	scapula_upward_rot_r	scapula_winging_r	shoulder_elv_r	plane_of_elev_r	axial_rot_r	elbow_flexion_r	pro_sup_r	wrist_flex_r	wrist_dev_r	clav_prot_l	clav_elev_l	scapula_abduction_l	scapula_elevation_l	scapula_upward_rot_l	scapula_winging_l	shoulder_elv_l	plane_of_elev_l	axial_rot_l	elbow_flexion_l	pro_sup_l	wrist_flex_l	wrist_dev_l
      6.57000000	     -3.89051101	      7.32984479	      9.96026860	     -0.10110549	      1.02618392	      0.01231806	     16.84404055	    -10.18882534	     44.99989197	    -11.84058700	     27.01919139	    -14.44012068	     -2.28650230	    -53.57302809	    119.93709833	    -36.33532613	   -125.29317087	     -1.05782740	     12.21792779	     24.32892274	     -9.95614704	    -36.67355707	     -5.46529049	    -21.82357652	     12.42725696	     57.83207968	      1.58264335	      8.76373758	     19.86206646	     17.54684579	     19.51000160	     -4.09113363
      6.58000000	     -3.97108887	      7.12628378	     10.14176217	     -0.09875283	      1.02588006	      0.01225601	     16.84639542	     -9.92311271	     45.00000000	    -11.61326126	     26.99350638	    -14.59064644	     -3.47712842	    -53.23434961	    118.96728734	    -35.43164383	   -126.84505786	      1.26507119	      5.44743695	     23.19146917	     -9.28862698	    -34.82157453	     -6.20962357	    -22.06863819	     11.45459679	     57.69624647	      3.05248795	      9.43207429	     18.48366221	     19.32731901	     18.66767392	     -6.28046639
      6.59000000	     -4.00559211	      7.10082094	     10.26806697	     -0.09839584	      1.02618384	      0.01232765	     16.75804059	     -9.91611758	     45.00000000	    -11.65758968	     27.19199931	    -14.56221468	     -3.62415701	    -53.42681610	    119.27951094	    -34.90027456	   -127.17391336	      1.26958228	      5.44971218	     23.29738659	     -9.55940232	    -34.97771835	     -5.96247201	    -22.04723277	     11.48783098	     57.76754335	      2.95439205	      9.25789018	     17.86785966	     19.55699513	     18.69287890	     -6.25827567
      6.60000000	     -3.85266996	      7.10780357	      9.94818032	     -0.09774434	      1.02656810	      0.01250486	     16.71001523	     -9.82200069	     44.99166842	    -11.60116211	     27.28001327	    -14.59734079	     -3.48413638	    -53.44888514	    119.19608653	    -34.88964228	   -127.72975866	      1.37324304	      5.32021168	     23.36232803	     -9.85852156	    -35.07822961	     -5.60249635	    -21.82890058	     11.49137896	     57.86133930	      3.10570438	      9.43390862	     17.19954236	     19.75675020	     18.64965713	     -6.22917391
      6.61000000	     -3.88120466	      7.02377981	      9.89456403	     -0.09721988	      1.02648097	      0.01250497	     16.71535833	     -9.80498199	     44.96643924	    -11.57513925	     27.22952796	    -14.60663811	     -3.49893791	    -53.50801855	    119.18449221	    -34.86107579	   -127.73674059	      1.37018883	      5.32140749	     23.36631390	     -9.86605344	    -35.08532997	     -5.59272001	    -21.82064194	     11.49667602	     57.86674201	      3.11576371	      9.43436481	     17.19238932	     19.75877198	     18.64868249	     -6.22932392
      6.62000000	     -3.54013493	      6.95128436	      9.60962615	     -0.09645776	      1.02648398	      0.01275855	     16.61841133	     -9.38395731	     45.00000000	    -11.28223548	     27.46462642	    -14.81852944	     -3.70653752	    -53.85078247	    119.30918926	    -34.83924905	   -132.14185507	      2.39403216	      5.36944801	     23.37725109	    -10.14809852	    -35.08578094	     -5.29737361	    -21.70562385	     11.43047350	     57.81626304	      3.42663872	     10.59091473	     16.43383693	     20.32300217	     18.13012037	     -6.75338012
      6.63000000	     -3.56068126	      6.73264257	      9.65218663	     -0.09635658	      1.02647337	      0.01293656	     16.69239711	     -9.42932222	     45.00000000	    -11.27878781	     27.30079842	    -14.82289340	     -3.71864412	    -53.84650920	    119.21770983	    -34.78292079	   -132.32400971	      2.35292538	      5.30931625	     23.39774580	    -10.18038877	    -35.11755148	     -5.26223983	    -21.69205096	     11.43961892	     57.84910946	      3.31730084	     10.52502061	     16.09356020	     20.38075602	     18.15653293	     -6.69676256
      6.64000000	     -3.58125432	      6.61593484	      9.60049383	     -0.09625864	      1.02628638	      0.01305604	     16.75770157	     -9.40833680	     45.00000000	    -11.22469665	     27.15403742	    -14.85666448	     -3.71007906	    -53.90358031	    119.10834683	    -34.79993280	   -132.47373613	      2.35223414	      5.30142831	     23.39166828	    -10.18812964	    -35.11432984	     -5.22500769	    -21.62640697	     11.44389780	     57.91675472	      3.28547736	     10.55632595	     15.93396361	     20.38969720	     18.15955560	     -6.66931224
      6.65000000	     -3.58559861	      6.40303513	      9.84186977	     -0.09617600	      1.02612073	      0.01314169	     17.10884569	     -9.58799654	     45.00000000	    -11.17542704	     26.37418868	    -14.89214946	     -3.90573471	    -54.07690863	    118.90355442	    -35.32983297	   -137.59052026	      2.71134524	      5.91373926	     23.23574946	    -10.23153708	    -34.84696464	     -5.21286381	    -21.66342715	     11.27084591	     57.86618763	      3.21574622	     10.62280818	     15.45926404	     20.20247534	     18.21198633	     -6.87408404
      6.66000000	     -3.57228797	      6.17980110	      9.72566005	     -0.09626082	      1.02596010	      0.01322550	     17.11683661	     -9.55596670	     45.00000000	    -11.14235164	     26.35299945	    -14.91629112	     -3.86765572	    -54.11383150	    118.84955376	    -35.37048158	   -137.64376744	      2.70481431	      5.88193295	     23.25320470	    -10.21208844	    -34.88086873	     -5.21336142	    -21.63052881	     11.29855828	     57.94625241	      3.16958321	     10.63125555	     15.34633397	     20.20633265	     18.20765275	     -6.84764212
      6.67000000	     -3.45291375	      6.03659029	      9.49194865	     -0.09629637	      1.02607961	      0.01346560	     17.24193006	     -9.49503306	     45.00000000	    -11.01720815	     26.06385235	    -14.99990008	     -3.81591789	    -54.05839761	    118.59049199	    -35.86502170	   -138.42869222	      2.72576979	      5.77045622	     23.20993944	    -10.42402501	    -34.81042131	     -4.93454491	    -21.41533540	     11.21645052	     58.07648862	      3.16627641	     10.91150889	     14.83061005	     20.11627226	     18.17358216	     -6.71891044
      6.68000000	     -3.45201944	      5.72405158	      9.47085787	     -0.09662096	      1.02593060	      0.01363047	     17.25492643	     -9.45807352	     45.00000000	    -10.97783296	     26.03052251	    -15.02706437	     -3.91271262	    -54.06023522	    118.61268958	    -35.97918566	   -138.58443342	      2.75090914	      5.78832983	     23.22252784	    -10.40003878	    -34.83323919	     -4.95920729	    -21.42581574	     11.23684341	     58.16119542	      3.03638326	     10.91218916	     14.72395201	     20.10554788	     18.16433856	     -6.70209088
      6.69000000	     -3.50306572	      5.47898807	      9.48568686	     -0.09682744	      1.02567437	      0.01380914	     17.35670953	     -9.34670034	     45.00000000	    -10.82321309	     25.78922125	    -15.13153267	     -4.17753487	    -54.06343922	    118.60671685	    -36.49798099	   -139.14824888	      2.86895247	      5.88147351	     23.17899884	    -10.44575207	    -34.75950529	     -4.90724085	    -21.39114815	     11.18305609	     58.30753572	      2.81832108	     11.01542054	     14.54827383	     20.02990696	     18.13058984	     -6.67738385
      6.70000000	     -3.24334659	      5.13116887	      9.72629445	     -0.09702047	      1.02552819	      0.01385997	     17.51312295	     -9.33974205	     45.00000000	    -10.72269275	     25.43030648	    -15.19479592	     -4.36750852	    -54.52701719	    118.86801840	    -37.11024443	   -144.13531661	      2.78795321	      6.90255909	     22.82251903	    -10.73825134	    -34.11673668	     -4.76144153	    -21.58533044	     10.71627692	     58.36297691	      2.54436628	     10.59470745	     14.43904416	     19.38840029	     17.98793308	     -6.73837602
